<?xml version="1.0" encoding="UTF-8" standalone="no"?>
<!-- Created with Inkscape (http://www.inkscape.org/) -->

<svg
   width="114.30657mm"
   height="105.56958mm"
   viewBox="0 0 114.30657 105.56958"
   version="1.1"
   id="svg5"
   xml:space="preserve"
   xmlns="http://www.w3.org/2000/svg"
   xmlns:svg="http://www.w3.org/2000/svg"><defs
     id="defs2" /><g
     id="layer1"
     style="display:inline"
     transform="translate(-147.88269,-390.93451)"><g
       id="g8355"><path
         style="fill:#555b6e;fill-opacity:1;stroke-width:0.264583"
         id="path763-8-1"
         d="m 121.67061,94.823092 c -7.94627,0.81478 -29.260589,-28.679149 -25.993077,-35.968207 3.267512,-7.289058 39.467167,-11.000837 44.145917,-4.52656 4.67875,6.474277 -10.20658,39.679986 -18.15284,40.494767 z"
         transform="matrix(0.93615074,0.82859371,-0.74792809,0.95185956,109.94939,257.95876)" /><path
         style="fill:#ee4266;fill-opacity:1;stroke-width:0.264583"
         id="path763-6-7-2"
         d="m 121.67061,94.823092 c -7.94627,0.81478 -29.260589,-28.679149 -25.993077,-35.968207 3.267512,-7.289058 39.467167,-11.000837 44.145917,-4.52656 4.67875,6.474277 -10.20658,39.679986 -18.15284,40.494767 z"
         transform="matrix(-0.93615074,0.82859371,0.74792809,0.95185956,298.6868,256.08929)" /><ellipse
         style="fill:#f6fff8;fill-opacity:1;stroke:#555b6e;stroke-width:2.87152;stroke-dasharray:none;stroke-opacity:1"
         id="path224-6-2-6"
         cx="205.56677"
         cy="445.3295"
         rx="55.186733"
         ry="49.738838" /><path
         style="fill:#555b6e;fill-opacity:1;stroke-width:0.264583"
         id="path937-9-9"
         d="m 200.56949,147.08306 c -0.51566,0.91381 -9.00477,0.99737 -9.53833,0.0939 -0.53355,-0.90348 3.63864,-8.29705 4.68785,-8.30738 1.04922,-0.0103 5.36615,7.29967 4.85048,8.21349 z"
         transform="matrix(-1.1316978,0,1.1897319e-5,-0.77695008,430.13992,559.60187)" /><ellipse
         style="fill:#555b6e;fill-opacity:1;stroke:none;stroke-width:0.727262;stroke-dasharray:none;stroke-opacity:1"
         id="path1737-6-2-1-20-3"
         cx="184.43861"
         cy="433.67767"
         rx="2.5443161"
         ry="5.1205182" /><ellipse
         style="fill:#555b6e;fill-opacity:1;stroke:none;stroke-width:0.727262;stroke-dasharray:none;stroke-opacity:1"
         id="path1737-6-2-1-2-2-1"
         cx="229.61223"
         cy="433.67767"
         rx="2.5443161"
         ry="5.1205182" /><path
         style="fill:#555b6e;fill-opacity:1;stroke:#555b6e;stroke-width:0.570177;stroke-dasharray:none;stroke-opacity:1"
         d="m 208.55731,451.23208 v 4.34941"
         id="path10510-3-9" /></g></g></svg>
