<svg width="152" height="35" viewBox="0 0 152 35" fill="none" xmlns="http://www.w3.org/2000/svg">
<path d="M67 0H150.438C150.852 0 151.249 0.227787 151.542 0.633252C151.835 1.03872 152 1.58864 152 2.16206V32.8379C152 33.4114 151.835 33.9613 151.542 34.3667C151.249 34.7722 150.852 35 150.438 35H67V0Z" fill="#EE4266"/>
<path d="M1.79873 0H80V35H1.79873C1.32168 35 0.864163 34.7722 0.526836 34.3667C0.189508 33.9613 0 33.4114 0 32.8379L0 2.16206C0 1.58864 0.189508 1.03872 0.526836 0.633252C0.864163 0.227787 1.32168 0 1.79873 0V0Z" fill="#DADADA"/>
<path d="M25.3875 19.616H21.0675L23.2035 13.952L25.3875 19.616ZM21.9555 9.68L15.5955 26H18.7155L20.1555 22.16H26.3475L27.8115 26.24L30.9315 25.808L24.5955 9.68H21.9555ZM35.8318 26V9.056L32.7358 9.32V26H35.8318ZM49.5547 14.36H47.9227L46.4347 16.64V26.528C46.4347 27.296 46.1387 27.896 45.5467 28.328C44.9707 28.776 44.2187 29.008 43.2907 29.024C42.6987 29.008 42.1067 28.92 41.5147 28.76C40.9227 28.6 40.2667 28.344 39.5467 27.992L38.6107 30.2C38.9307 30.408 39.3067 30.592 39.7387 30.752C40.1707 30.928 40.6187 31.072 41.0827 31.184C41.5467 31.296 41.9787 31.376 42.3787 31.424C42.7947 31.488 43.1227 31.52 43.3627 31.52C44.5947 31.52 45.6747 31.328 46.6027 30.944C47.5307 30.576 48.2507 30.024 48.7627 29.288C49.2907 28.552 49.5547 27.64 49.5547 26.552V14.36ZM47.0827 22.088C46.5227 22.6 45.9947 22.984 45.4987 23.24C45.0187 23.496 44.5067 23.624 43.9627 23.624C43.4027 23.624 42.9067 23.48 42.4747 23.192C42.0587 22.888 41.7387 22.48 41.5147 21.968C41.3067 21.456 41.2027 20.872 41.2027 20.216C41.2027 19.528 41.3067 18.928 41.5147 18.416C41.7387 17.888 42.0587 17.472 42.4747 17.168C42.8907 16.864 43.3947 16.712 43.9867 16.712C44.5147 16.712 45.0187 16.832 45.4987 17.072C45.9947 17.296 46.5307 17.72 47.1067 18.344L47.9707 16.232C47.7307 15.864 47.3867 15.512 46.9387 15.176C46.5067 14.84 46.0187 14.568 45.4747 14.36C44.9467 14.152 44.4347 14.048 43.9387 14.048C42.6907 14.048 41.6187 14.312 40.7227 14.84C39.8427 15.352 39.1627 16.072 38.6827 17C38.2187 17.912 37.9867 18.984 37.9867 20.216C37.9867 21.432 38.2187 22.496 38.6827 23.408C39.1627 24.32 39.8427 25.032 40.7227 25.544C41.6027 26.04 42.6427 26.288 43.8427 26.288C44.4027 26.288 44.9227 26.2 45.4027 26.024C45.8987 25.848 46.3627 25.6 46.7947 25.28C47.2267 24.944 47.6187 24.56 47.9707 24.128L47.0827 22.088ZM57.8433 26.288C56.5793 26.288 55.4833 26.04 54.5553 25.544C53.6273 25.048 52.9073 24.344 52.3953 23.432C51.8833 22.504 51.6273 21.424 51.6273 20.192C51.6433 18.944 51.8993 17.864 52.3953 16.952C52.9073 16.024 53.6273 15.312 54.5553 14.816C55.4993 14.304 56.5953 14.048 57.8433 14.048C59.1233 14.048 60.2193 14.296 61.1313 14.792C62.0593 15.288 62.7793 15.992 63.2913 16.904C63.8033 17.816 64.0593 18.896 64.0593 20.144C64.0593 21.376 63.8033 22.456 63.2913 23.384C62.7793 24.312 62.0593 25.032 61.1313 25.544C60.2033 26.04 59.1073 26.288 57.8433 26.288ZM57.8673 23.624C58.4593 23.624 58.9713 23.472 59.4033 23.168C59.8513 22.864 60.2033 22.448 60.4593 21.92C60.7153 21.392 60.8433 20.8 60.8433 20.144C60.8433 19.472 60.7153 18.88 60.4593 18.368C60.2033 17.856 59.8513 17.456 59.4033 17.168C58.9553 16.864 58.4353 16.712 57.8433 16.712C57.2673 16.712 56.7473 16.864 56.2833 17.168C55.8353 17.472 55.4833 17.888 55.2273 18.416C54.9713 18.928 54.8433 19.52 54.8433 20.192C54.8433 20.864 54.9713 21.456 55.2273 21.968C55.4833 22.48 55.8433 22.888 56.3073 23.192C56.7713 23.48 57.2913 23.624 57.8673 23.624Z" fill="#555B6E"/>
<path d="M104.327 7.68H91.1267V10.128H96.0947V24H99.2387V10.128H104.831L104.327 7.68ZM109.506 24V16.896C109.954 16.496 110.426 16.144 110.922 15.84C111.434 15.536 111.922 15.296 112.386 15.12C112.85 14.944 113.266 14.856 113.634 14.856L113.01 12.36C112.594 12.36 112.138 12.464 111.642 12.672C111.162 12.88 110.69 13.136 110.226 13.44C109.762 13.728 109.37 14.016 109.05 14.304L108.018 12.36H106.386V24H109.506ZM120.695 24.288C119.431 24.288 118.335 24.04 117.407 23.544C116.479 23.048 115.759 22.344 115.247 21.432C114.735 20.504 114.479 19.424 114.479 18.192C114.495 16.944 114.751 15.864 115.247 14.952C115.759 14.024 116.479 13.312 117.407 12.816C118.351 12.304 119.447 12.048 120.695 12.048C121.975 12.048 123.071 12.296 123.983 12.792C124.911 13.288 125.631 13.992 126.143 14.904C126.655 15.816 126.911 16.896 126.911 18.144C126.911 19.376 126.655 20.456 126.143 21.384C125.631 22.312 124.911 23.032 123.983 23.544C123.055 24.04 121.959 24.288 120.695 24.288ZM120.719 21.624C121.311 21.624 121.823 21.472 122.255 21.168C122.703 20.864 123.055 20.448 123.311 19.92C123.567 19.392 123.695 18.8 123.695 18.144C123.695 17.472 123.567 16.88 123.311 16.368C123.055 15.856 122.703 15.456 122.255 15.168C121.807 14.864 121.287 14.712 120.695 14.712C120.119 14.712 119.599 14.864 119.135 15.168C118.687 15.472 118.335 15.888 118.079 16.416C117.823 16.928 117.695 17.52 117.695 18.192C117.695 18.864 117.823 19.456 118.079 19.968C118.335 20.48 118.695 20.888 119.159 21.192C119.623 21.48 120.143 21.624 120.719 21.624ZM131.936 24V15.96C132.208 15.768 132.504 15.56 132.824 15.336C133.16 15.112 133.52 14.928 133.904 14.784C134.288 14.64 134.672 14.568 135.056 14.568C135.568 14.568 135.976 14.76 136.28 15.144C136.584 15.528 136.736 16.096 136.736 16.848V24H139.856V16.704C139.856 15.808 139.736 15.008 139.496 14.304C139.272 13.584 138.872 13.016 138.296 12.6C137.736 12.184 136.928 11.976 135.872 11.976C135.456 11.976 134.992 12.04 134.48 12.168C133.984 12.28 133.464 12.464 132.92 12.72C132.392 12.96 131.88 13.248 131.384 13.584L130.856 12.36H128.816V24H131.936Z" fill="white"/>
</svg>
