<svg width="433" height="400" viewBox="0 0 433 400" fill="none" xmlns="http://www.w3.org/2000/svg">
<path d="M19.0786 219.583C-11.3402 197.629 -3.38076 24.7726 28.7852 8.7825C60.9511 -7.20762 199.526 92.8052 197.778 130.749C196.031 168.693 49.4974 241.537 19.0786 219.583Z" fill="#555B6E"/>
<path d="M407.52 212.518C437.939 190.564 429.979 17.7069 397.813 1.71682C365.647 -14.2733 227.073 85.7395 228.82 123.684C230.567 161.628 377.101 234.472 407.52 212.518Z" fill="#EE4266"/>
<path d="M218.019 393.577C333.214 393.577 426.598 309.411 426.598 205.587C426.598 101.764 333.214 17.5981 218.019 17.5981C102.823 17.5981 9.43872 101.764 9.43872 205.587C9.43872 309.411 102.823 393.577 218.019 393.577Z" fill="#F6FFF8" stroke="#555B6E" stroke-width="10.853"/>
<path d="M208.913 205.573C211.119 202.89 247.429 202.644 249.711 205.297C251.993 207.951 234.147 229.662 229.66 229.692C225.172 229.722 206.708 208.257 208.913 205.573L208.913 205.573Z" fill="#555B6E"/>
<path d="M138.164 180.903C143.475 180.903 147.78 172.238 147.78 161.549C147.78 150.861 143.475 142.196 138.164 142.196C132.853 142.196 128.548 150.861 128.548 161.549C128.548 172.238 132.853 180.903 138.164 180.903Z" fill="#555B6E"/>
<path d="M308.899 180.903C314.21 180.903 318.515 172.238 318.515 161.549C318.515 150.861 314.21 142.196 308.899 142.196C303.588 142.196 299.283 150.861 299.283 161.549C299.283 172.238 303.588 180.903 308.899 180.903Z" fill="#555B6E"/>
<path d="M229.322 227.896V244.335V227.896Z" fill="#555B6E"/>
<path d="M229.322 227.896V244.335" stroke="#555B6E" stroke-width="3.99999"/>
<path d="M229.322 244.335C229.322 244.335 209.294 249.679 203.544 266.043" stroke="#555B6E" stroke-width="3.99999" stroke-miterlimit="20.9" stroke-linecap="round" stroke-linejoin="round"/>
<path d="M229.322 244.335C229.322 244.335 249.349 249.679 255.099 266.043" stroke="#555B6E" stroke-width="3.99999" stroke-miterlimit="20.9" stroke-linecap="round" stroke-linejoin="round"/>
<path d="M311.264 210.636C313.755 210.636 322.09 226.435 320.845 228.796C319.599 231.156 302.928 231.156 301.683 228.796C300.437 226.435 308.773 210.636 311.264 210.636Z" fill="#555B6E" stroke="#555B6E" stroke-width="5.34637" stroke-miterlimit="20.9"/>
<path d="M311.264 240.599C316.75 240.599 321.197 235.964 321.197 230.246C321.197 224.529 316.75 219.894 311.264 219.894C305.778 219.894 301.33 224.529 301.33 230.246C301.33 235.964 305.778 240.599 311.264 240.599Z" fill="#555B6E" stroke="#555B6E" stroke-width="5.44195" stroke-miterlimit="20.9"/>
</svg>
