<svg width="199" height="228" viewBox="0 0 199 228" fill="none" xmlns="http://www.w3.org/2000/svg">
<g clip-path="url(#clip0_125_268)">
<path d="M24.9168 217.089C37.6431 217.089 47.9598 207.339 47.9598 195.313C47.9598 183.287 37.6431 173.537 24.9168 173.537C12.1904 173.537 1.87372 183.287 1.87372 195.313C1.87372 207.339 12.1904 217.089 24.9168 217.089Z" fill="#F6FFF8" stroke="#555B6E" stroke-width="2.87152"/>
<path d="M77.7858 97.3142C47.7826 100.484 23.8957 139.119 22.6306 187.03C22.5723 189.238 22.5732 192.821 22.6338 195.029C22.8012 201.137 23.344 207.204 24.2546 213.144C24.5893 215.328 26.7077 217.089 28.9168 217.089H134.64C136.849 217.089 138.968 215.328 139.302 213.144C140.213 207.204 140.756 201.137 140.923 195.029C140.984 192.821 140.985 189.238 140.927 187.03C139.662 139.118 115.774 100.484 85.771 97.3141C83.5751 97.0821 79.9816 97.0821 77.7857 97.3142H77.7858Z" fill="#F6FFF8" stroke="#555B6E" stroke-width="2.87152" stroke-miterlimit="8.7" stroke-linecap="round"/>
<path d="M77.9946 203.479C78.2722 207.298 78.2635 211.136 77.9685 214.955C77.9525 215.163 77.9355 215.371 77.9178 215.578" stroke="#555B6E" stroke-width="1.9671" stroke-linecap="round" stroke-linejoin="round"/>
<path d="M53.3534 203.318C53.0325 207.303 53.0259 211.311 53.3337 215.297C53.3497 215.505 53.3666 215.713 53.3844 215.92" stroke="#555B6E" stroke-width="1.9671" stroke-linecap="round" stroke-linejoin="round"/>
<path d="M52.2556 214.259C52.2556 217.693 53.6471 220.987 56.1276 223.427C58.6081 225.867 61.9771 227.254 65.5023 227.288C69.0276 227.322 72.4241 225.999 74.9536 223.608C77.4831 221.216 78.9411 217.949 79.0107 214.517L65.6344 214.259H52.2556Z" fill="#555B6E"/>
<path d="M78.1265 209.008H53.4456V215.246H78.1265V209.008Z" fill="#555B6E"/>
<path d="M124.474 203.479C124.752 207.298 124.743 211.136 124.448 214.955C124.432 215.163 124.415 215.371 124.397 215.578" stroke="#555B6E" stroke-width="1.9671" stroke-linecap="round" stroke-linejoin="round"/>
<path d="M99.8327 203.318C99.5118 207.303 99.5052 211.311 99.813 215.297C99.8291 215.505 99.846 215.713 99.8637 215.92" stroke="#555B6E" stroke-width="1.9671" stroke-linecap="round" stroke-linejoin="round"/>
<path d="M98.7349 214.259C98.7349 217.693 100.126 220.987 102.607 223.427C105.087 225.867 108.456 227.254 111.982 227.288C115.507 227.322 118.903 225.999 121.433 223.608C123.962 221.216 125.42 217.949 125.49 214.517L112.114 214.259H98.7349Z" fill="#555B6E"/>
<path d="M124.606 209.008H99.925V215.246H124.606V209.008Z" fill="#555B6E"/>
<path d="M120.699 191.205H197.762V216.508C197.762 219.687 196.499 222.735 194.251 224.983C192.004 227.231 188.955 228.493 185.777 228.493H134.014C130.482 228.493 127.096 227.091 124.599 224.594C122.102 222.097 120.699 218.71 120.699 215.179V191.205Z" fill="#89AAE6"/>
<path d="M142.461 211.509V209.72H150.889V211.509H147.748V219.983H145.603V211.509H142.461ZM152.278 219.983V209.72H156.326C157.102 209.72 157.763 209.859 158.311 210.136C158.862 210.41 159.281 210.799 159.569 211.304C159.859 211.805 160.005 212.394 160.005 213.072C160.005 213.754 159.858 214.34 159.564 214.831C159.27 215.319 158.844 215.693 158.286 215.954C157.731 216.214 157.06 216.345 156.271 216.345H153.56V214.601H155.921C156.335 214.601 156.679 214.544 156.953 214.43C157.227 214.317 157.431 214.146 157.564 213.919C157.701 213.692 157.77 213.41 157.77 213.072C157.77 212.732 157.701 212.444 157.564 212.211C157.431 211.977 157.225 211.8 156.948 211.679C156.674 211.556 156.328 211.494 155.911 211.494H154.447V219.983H152.278ZM157.82 215.312L160.37 219.983H157.975L155.48 215.312H157.82ZM170.969 214.851C170.969 215.97 170.757 216.923 170.332 217.708C169.911 218.493 169.337 219.092 168.609 219.507C167.884 219.918 167.068 220.123 166.163 220.123C165.251 220.123 164.433 219.916 163.708 219.502C162.983 219.087 162.41 218.488 161.989 217.703C161.568 216.918 161.358 215.967 161.358 214.851C161.358 213.732 161.568 212.78 161.989 211.995C162.41 211.21 162.983 210.612 163.708 210.201C164.433 209.787 165.251 209.58 166.163 209.58C167.068 209.58 167.884 209.787 168.609 210.201C169.337 210.612 169.911 211.21 170.332 211.995C170.757 212.78 170.969 213.732 170.969 214.851ZM168.769 214.851C168.769 214.126 168.66 213.515 168.443 213.017C168.229 212.52 167.927 212.142 167.536 211.885C167.145 211.628 166.688 211.499 166.163 211.499C165.639 211.499 165.181 211.628 164.79 211.885C164.399 212.142 164.095 212.52 163.878 213.017C163.664 213.515 163.557 214.126 163.557 214.851C163.557 215.576 163.664 216.188 163.878 216.685C164.095 217.183 164.399 217.561 164.79 217.818C165.181 218.075 165.639 218.204 166.163 218.204C166.688 218.204 167.145 218.075 167.536 217.818C167.927 217.561 168.229 217.183 168.443 216.685C168.66 216.188 168.769 215.576 168.769 214.851ZM181.16 209.72V219.983H179.286L174.821 213.523H174.746V219.983H172.576V209.72H174.48L178.91 216.174H179V209.72H181.16Z" fill="#F6FFF8"/>
<path d="M159.354 201.867C180.676 201.867 197.961 197.533 197.961 192.188C197.961 186.843 180.676 182.51 159.354 182.51C138.031 182.51 120.746 186.843 120.746 192.188C120.746 197.533 138.031 201.867 159.354 201.867Z" fill="#89AAE6" stroke="#F6FFF8" stroke-width="1.54014" stroke-miterlimit="8.7" stroke-linecap="round" stroke-linejoin="round"/>
<path d="M159.253 200.769C180.366 200.769 197.482 196.658 197.482 191.587C197.482 186.515 180.366 182.404 159.253 182.404C138.139 182.404 121.023 186.515 121.023 191.587C121.023 196.658 138.139 200.769 159.253 200.769Z" fill="#89AAE6"/>
<path d="M28.4999 113.547C19.0599 110.481 7.06607 66.2965 13.8732 59.6639C20.6804 53.0313 63.6846 67.0006 66.3174 76.6996C68.9502 86.3987 37.9398 116.614 28.4999 113.547V113.547Z" fill="#555B6E"/>
<path d="M125.77 80.3101C131.654 72.3168 115.651 29.4214 106.254 27.9987C96.8565 26.576 70.0512 62.99 73.5641 72.406C77.0771 81.8221 119.886 88.3034 125.77 80.3101V80.3101Z" fill="#EE4266"/>
<path d="M92.7005 141.263C121.716 131.934 138.422 103.171 130.014 77.0195C121.606 50.8679 91.2681 37.2306 62.2522 46.5596C33.2362 55.8886 16.5302 84.6513 24.9383 110.803C33.3464 136.954 63.6846 150.592 92.7005 141.263Z" fill="#F6FFF8" stroke="#555B6E" stroke-width="2.87152"/>
<path d="M75.1817 94.6449C75.5199 93.7904 84.6461 90.788 85.4358 91.2715C86.2254 91.7549 83.4886 98.6689 82.3606 99.04C81.2327 99.411 74.8434 95.4995 75.1817 94.6449L75.1817 94.6449Z" fill="#555B6E"/>
<path d="M55.3631 94.1604C56.7009 93.7303 57.0836 91.1991 56.218 88.5068C55.3524 85.8146 53.5663 83.9807 52.2285 84.4108C50.8908 84.8409 50.508 87.3721 51.3736 90.0644C52.2392 92.7566 54.0254 94.5905 55.3631 94.1604Z" fill="#555B6E"/>
<path d="M98.3686 80.3335C99.7064 79.9034 100.089 77.3722 99.2235 74.6799C98.3579 71.9877 96.5718 70.1538 95.234 70.5839C93.8963 71.014 93.5135 73.5452 94.3791 76.2375C95.2447 78.9297 97.0309 80.7636 98.3686 80.3335Z" fill="#555B6E"/>
<path d="M82.13 98.6151L83.4613 102.756Z" fill="#555B6E"/>
<path d="M82.13 98.6151L83.4613 102.756" stroke="#555B6E" stroke-width="1.05833"/>
<path d="M83.4613 102.756C83.4613 102.756 78.8493 105.724 78.7264 110.311" stroke="#555B6E" stroke-width="1.05833" stroke-miterlimit="20.9" stroke-linecap="round" stroke-linejoin="round"/>
<path d="M83.4613 102.756C83.4613 102.756 88.9388 102.48 91.7122 106.136" stroke="#555B6E" stroke-width="1.05833" stroke-miterlimit="20.9" stroke-linecap="round" stroke-linejoin="round"/>
<path d="M19.9082 10.6086C19.9082 10.6086 26.0834 -0.94101 35.5806 3.84369C44.747 8.46168 37.6805 18.6184 37.6805 18.6184C37.6805 18.6184 36.0618 22.369 38.6093 27.3107" stroke="#555B6E" stroke-width="4.14959" stroke-miterlimit="20.9" stroke-linecap="round" stroke-linejoin="round"/>
<path d="M42.1031 36.6236C43.6045 36.7747 44.9498 35.7171 45.1077 34.2614C45.2657 32.8056 44.1765 31.5029 42.6751 31.3517C41.1736 31.2005 39.8284 32.2582 39.6704 33.7139C39.5125 35.1697 40.6016 36.4724 42.1031 36.6236Z" fill="#555B6E"/>
<path d="M49.0597 5.49136C49.0597 5.49136 55.1433 0.121766 59.5505 4.83315C63.8042 9.38038 57.5142 13.7649 57.5142 13.7649C57.5142 13.7649 55.7607 15.5883 56.1399 18.9564" stroke="#555B6E" stroke-width="3.3825" stroke-miterlimit="20.9" stroke-linecap="round" stroke-linejoin="round"/>
<path d="M55.5516 27.1148C56.6314 27.6311 57.9397 27.2005 58.4737 26.153C59.0078 25.1056 58.5654 23.8379 57.4856 23.3216C56.4058 22.8053 55.0975 23.2359 54.5635 24.2833C54.0295 25.3308 54.4719 26.5985 55.5516 27.1148Z" fill="#555B6E"/>
<path d="M69.5118 6.76019C69.5118 6.76019 74.2662 4.55941 76.1692 8.27899C78.0059 11.869 73.2994 13.4233 73.2994 13.4233C73.2994 13.4233 71.8796 14.228 71.5125 16.3784" stroke="#555B6E" stroke-width="3.38288" stroke-miterlimit="20.9" stroke-linecap="round" stroke-linejoin="round"/>
<path d="M69.8881 22.6792C70.5281 23.2699 71.5122 23.2403 72.0861 22.6131C72.6601 21.9858 72.6065 20.9985 71.9664 20.4078C71.3264 19.8171 70.3423 19.8467 69.7684 20.4739C69.1945 21.1012 69.2481 22.0885 69.8881 22.6792Z" fill="#555B6E"/>
</g>
<defs>
<clipPath id="clip0_125_268">
<rect width="198.294" height="227.846" fill="white"/>
</clipPath>
</defs>
</svg>
