<svg width="152" height="35" viewBox="0 0 152 35" fill="none" xmlns="http://www.w3.org/2000/svg">
<path d="M79.7102 0H150.131C150.481 0 150.816 0.227787 151.063 0.633252C151.31 1.03872 151.449 1.58864 151.449 2.16206V32.8379C151.449 33.4114 151.31 33.9613 151.063 34.3667C150.816 34.7722 150.481 35 150.131 35H79.7102V0Z" fill="#EE4266"/>
<path d="M1.79221 0H79.7102V35H1.79221C1.31689 35 0.861033 34.7722 0.524927 34.3667C0.188822 33.9613 0 33.4114 0 32.8379L0 2.16206C0 1.58864 0.188822 1.03872 0.524927 0.633252C0.861033 0.227787 1.31689 0 1.79221 0V0Z" fill="#555B6E"/>
<path d="M25.3875 19.616H21.0675L23.2035 13.952L25.3875 19.616ZM21.9555 9.68L15.5955 26H18.7155L20.1555 22.16H26.3475L27.8115 26.24L30.9315 25.808L24.5955 9.68H21.9555ZM35.8318 26V9.056L32.7358 9.32V26H35.8318ZM49.5547 14.36H47.9227L46.4347 16.64V26.528C46.4347 27.296 46.1387 27.896 45.5467 28.328C44.9707 28.776 44.2187 29.008 43.2907 29.024C42.6987 29.008 42.1067 28.92 41.5147 28.76C40.9227 28.6 40.2667 28.344 39.5467 27.992L38.6107 30.2C38.9307 30.408 39.3067 30.592 39.7387 30.752C40.1707 30.928 40.6187 31.072 41.0827 31.184C41.5467 31.296 41.9787 31.376 42.3787 31.424C42.7947 31.488 43.1227 31.52 43.3627 31.52C44.5947 31.52 45.6747 31.328 46.6027 30.944C47.5307 30.576 48.2507 30.024 48.7627 29.288C49.2907 28.552 49.5547 27.64 49.5547 26.552V14.36ZM47.0827 22.088C46.5227 22.6 45.9947 22.984 45.4987 23.24C45.0187 23.496 44.5067 23.624 43.9627 23.624C43.4027 23.624 42.9067 23.48 42.4747 23.192C42.0587 22.888 41.7387 22.48 41.5147 21.968C41.3067 21.456 41.2027 20.872 41.2027 20.216C41.2027 19.528 41.3067 18.928 41.5147 18.416C41.7387 17.888 42.0587 17.472 42.4747 17.168C42.8907 16.864 43.3947 16.712 43.9867 16.712C44.5147 16.712 45.0187 16.832 45.4987 17.072C45.9947 17.296 46.5307 17.72 47.1067 18.344L47.9707 16.232C47.7307 15.864 47.3867 15.512 46.9387 15.176C46.5067 14.84 46.0187 14.568 45.4747 14.36C44.9467 14.152 44.4347 14.048 43.9387 14.048C42.6907 14.048 41.6187 14.312 40.7227 14.84C39.8427 15.352 39.1627 16.072 38.6827 17C38.2187 17.912 37.9867 18.984 37.9867 20.216C37.9867 21.432 38.2187 22.496 38.6827 23.408C39.1627 24.32 39.8427 25.032 40.7227 25.544C41.6027 26.04 42.6427 26.288 43.8427 26.288C44.4027 26.288 44.9227 26.2 45.4027 26.024C45.8987 25.848 46.3627 25.6 46.7947 25.28C47.2267 24.944 47.6187 24.56 47.9707 24.128L47.0827 22.088ZM57.8433 26.288C56.5793 26.288 55.4833 26.04 54.5553 25.544C53.6273 25.048 52.9073 24.344 52.3953 23.432C51.8833 22.504 51.6273 21.424 51.6273 20.192C51.6433 18.944 51.8993 17.864 52.3953 16.952C52.9073 16.024 53.6273 15.312 54.5553 14.816C55.4993 14.304 56.5953 14.048 57.8433 14.048C59.1233 14.048 60.2193 14.296 61.1313 14.792C62.0593 15.288 62.7793 15.992 63.2913 16.904C63.8033 17.816 64.0593 18.896 64.0593 20.144C64.0593 21.376 63.8033 22.456 63.2913 23.384C62.7793 24.312 62.0593 25.032 61.1313 25.544C60.2033 26.04 59.1073 26.288 57.8433 26.288ZM57.8673 23.624C58.4593 23.624 58.9713 23.472 59.4033 23.168C59.8513 22.864 60.2033 22.448 60.4593 21.92C60.7153 21.392 60.8433 20.8 60.8433 20.144C60.8433 19.472 60.7153 18.88 60.4593 18.368C60.2033 17.856 59.8513 17.456 59.4033 17.168C58.9553 16.864 58.4353 16.712 57.8433 16.712C57.2673 16.712 56.7473 16.864 56.2833 17.168C55.8353 17.472 55.4833 17.888 55.2273 18.416C54.9713 18.928 54.8433 19.52 54.8433 20.192C54.8433 20.864 54.9713 21.456 55.2273 21.968C55.4833 22.48 55.8433 22.888 56.3073 23.192C56.7713 23.48 57.2913 23.624 57.8673 23.624Z" fill="#F6FFF8"/>
<path d="M102.827 9.68H89.6267V12.128H94.5947V26H97.7387V12.128H103.331L102.827 9.68ZM108.006 26V18.896C108.454 18.496 108.926 18.144 109.422 17.84C109.934 17.536 110.422 17.296 110.886 17.12C111.35 16.944 111.766 16.856 112.134 16.856L111.51 14.36C111.094 14.36 110.638 14.464 110.142 14.672C109.662 14.88 109.19 15.136 108.726 15.44C108.262 15.728 107.87 16.016 107.55 16.304L106.518 14.36H104.886V26H108.006ZM119.195 26.288C117.931 26.288 116.835 26.04 115.907 25.544C114.979 25.048 114.259 24.344 113.747 23.432C113.235 22.504 112.979 21.424 112.979 20.192C112.995 18.944 113.251 17.864 113.747 16.952C114.259 16.024 114.979 15.312 115.907 14.816C116.851 14.304 117.947 14.048 119.195 14.048C120.475 14.048 121.571 14.296 122.483 14.792C123.411 15.288 124.131 15.992 124.643 16.904C125.155 17.816 125.411 18.896 125.411 20.144C125.411 21.376 125.155 22.456 124.643 23.384C124.131 24.312 123.411 25.032 122.483 25.544C121.555 26.04 120.459 26.288 119.195 26.288ZM119.219 23.624C119.811 23.624 120.323 23.472 120.755 23.168C121.203 22.864 121.555 22.448 121.811 21.92C122.067 21.392 122.195 20.8 122.195 20.144C122.195 19.472 122.067 18.88 121.811 18.368C121.555 17.856 121.203 17.456 120.755 17.168C120.307 16.864 119.787 16.712 119.195 16.712C118.619 16.712 118.099 16.864 117.635 17.168C117.187 17.472 116.835 17.888 116.579 18.416C116.323 18.928 116.195 19.52 116.195 20.192C116.195 20.864 116.323 21.456 116.579 21.968C116.835 22.48 117.195 22.888 117.659 23.192C118.123 23.48 118.643 23.624 119.219 23.624ZM130.436 26V17.96C130.708 17.768 131.004 17.56 131.324 17.336C131.66 17.112 132.02 16.928 132.404 16.784C132.788 16.64 133.172 16.568 133.556 16.568C134.068 16.568 134.476 16.76 134.78 17.144C135.084 17.528 135.236 18.096 135.236 18.848V26H138.356V18.704C138.356 17.808 138.236 17.008 137.996 16.304C137.772 15.584 137.372 15.016 136.796 14.6C136.236 14.184 135.428 13.976 134.372 13.976C133.956 13.976 133.492 14.04 132.98 14.168C132.484 14.28 131.964 14.464 131.42 14.72C130.892 14.96 130.38 15.248 129.884 15.584L129.356 14.36H127.316V26H130.436Z" fill="#F6FFF8"/>
</svg>
